<?xml version="1.0" encoding="UTF-8" standalone="no"?>
<svg
   xmlns:dc="http://purl.org/dc/elements/1.1/"
   xmlns:cc="http://creativecommons.org/ns#"
   xmlns:rdf="http://www.w3.org/1999/02/22-rdf-syntax-ns#"
   xmlns:svg="http://www.w3.org/2000/svg"
   xmlns="http://www.w3.org/2000/svg"
   xmlns:sodipodi="http://sodipodi.sourceforge.net/DTD/sodipodi-0.dtd"
   xmlns:inkscape="http://www.inkscape.org/namespaces/inkscape"
   version="1.1"
   id="Layer_1"
   x="0px"
   y="0px"
   preserveAspectRatio="xMidYMin"
   height="96"
   viewBox="24.5 40.5 96 716.8"
   enable-background="new 24.5 40.5 744 224"
   xml:space="preserve"
   inkscape:version="0.48.4 r9939"
   width="100%"
   sodipodi:docname="etcd.svg"><metadata
     id="metadata3083"><rdf:RDF><cc:Work
         rdf:about=""><dc:format>image/svg+xml</dc:format><dc:type
           rdf:resource="http://purl.org/dc/dcmitype/StillImage" /></cc:Work></rdf:RDF></metadata><defs
     id="defs3081" /><sodipodi:namedview
     pagecolor="#ffffff"
     bordercolor="#666666"
     borderopacity="1"
     objecttolerance="10"
     gridtolerance="10"
     guidetolerance="10"
     inkscape:pageopacity="0"
     inkscape:pageshadow="2"
     inkscape:window-width="1445"
     inkscape:window-height="975"
     id="namedview3079"
     showgrid="false"
     inkscape:zoom="4.6684254"
     inkscape:cx="69.415032"
     inkscape:cy="32.132515"
     inkscape:window-x="531"
     inkscape:window-y="46"
     inkscape:window-maximized="0"
     inkscape:current-layer="Layer_1" /><g
     id="g3057"
     transform="matrix(3.3348221,0,0,3.3347755,-381.4529,-110.00132)"><path
       style="fill:#53a3da"
       inkscape:connector-curvature="0"
       id="path3059"
       d="M 136.168,45.527 C 76.898,45.527 28.689,93.739 28.689,153 c 0,59.265 48.209,107.474 107.479,107.474 59.252,0 107.465,-48.209 107.465,-107.474 0,-59.261 -48.213,-107.473 -107.465,-107.473 z" /><path
       style="fill:#f1606d"
       inkscape:connector-curvature="0"
       id="path3061"
       d="m 136.168,55.389 c -17.283,0 -31.941,27.645 -37.235,66.069 -0.169,1.236 -0.333,2.487 -0.478,3.746 -0.723,6.047 -1.213,12.335 -1.458,18.808 -0.117,2.962 -0.175,5.956 -0.175,8.988 0,3.029 0.058,6.029 0.175,8.985 0.245,6.472 0.735,12.764 1.458,18.811 8.104,1.049 16.769,1.761 25.807,2.099 3.907,0.146 7.872,0.233 11.907,0.233 4.023,0 8,-0.088 11.895,-0.233 9.049,-0.338 17.708,-1.05 25.819,-2.099 0.892,-0.114 1.77,-0.239 2.659,-0.368 33.754,-4.74 57.235,-15.232 57.235,-27.428 -10e-4,-53.912 -43.706,-97.611 -97.609,-97.611 z" /><path
       style="fill:#ffffff"
       inkscape:connector-curvature="0"
       id="path3063"
       d="m 176.541,125.569 c -0.979,-1.428 -2.029,-2.796 -3.148,-4.11 -8.956,-10.557 -22.297,-17.265 -37.224,-17.265 -4.839,0 -9.148,7.407 -11.907,18.909 -1.096,4.586 -1.947,9.819 -2.495,15.498 -0.432,4.551 -0.665,9.391 -0.665,14.399 0,5.008 0.233,9.849 0.665,14.396 4.554,0.432 9.387,0.664 14.402,0.664 5.009,0 9.842,-0.232 14.396,-0.664 10.011,-0.95 18.653,-2.875 24.775,-5.411 6.046,-2.501 9.624,-5.615 9.624,-8.985 -0.001,-10.168 -3.106,-19.612 -8.423,-27.431 z" /></g></svg>